<svg viewBoxSize="575" data-root-id="4266539541658" xmlns="http://www.w3.org/2000/svg" xmlns:xlink="http://www.w3.org/1999/xlink" version="1.1" id="Layer_1" x="86.5624" y="124.677" viewBox="-31.65679168701172 227.34075927734375 129.11358642578125 104.62274169921875" xml:space="preserve" height="325.64573223448036" width="401.87512772806576" preserveAspectRatio="xMinYMin" zoom="1" editorType="buyer" data-layer-role="icon" style="position: absolute; height: 325.646px; width: 401.875px; top: 124.677px; left: 86.5624px;"><path class="st0" d="M10.2,227.7l60.6,9.4c16.9,2.6,29.5,18.8,26.1,35.5l-6,29.5c-3.4,16.8-18.5,28.6-35.4,26L20,322.6l-2.8,2.3  l-14.5,2l2.1-6.6l-9.8-1.5c-16.9-2.6-29.5-18.7-26.1-35.5l6-29.5C-21.8,236.9-6.7,225.1,10.2,227.7z" name="Layer %{number}" zoom="1" data-layer-id="1464421141659" style="fill-rule: evenodd; clip-rule: evenodd; fill: rgb(0, 0, 0); fill-opacity: 1;"></path><path class="st1" d="M-13.4,288c-12.3,7.7-6.9,27.3,6.6,22.9C-11.2,302.6-12.9,294.2-13.4,288L-13.4,288z M58.3,274.4l0.2,0.1l0,0  l0.2,0.1l0.1,0.1l0.2,0.1l0,0c0.1,0.1,0.2,0.2,0.4,0.2l0.1,0l0.2,0.1l0.1,0.1c0.1,0.1,0.2,0.2,0.4,0.3l0,0l0.2,0.1l0.1,0.1l0.2,0.1  l0,0l0.2,0.2l0,0l0.2,0.1l0.1,0.1l0.2,0.2l0,0l0.2,0.2l0.1,0.1l0.1,0.1l0.1,0.1l0.1,0.1l0.1,0.1l0.2,0.2l0,0l0.1,0.1l0.1,0.1  l0.1,0.1l0,0l0.2,0.2l0,0l0.1,0.2l0.1,0.1l0.1,0.2l0,0l0.2,0.2l0,0l0.1,0.1l0.1,0.2l0.1,0.1l0.1,0.2l0.1,0.2l0.1,0.2l0.1,0.1  l0.1,0.2l0,0.1l0,0l0.1,0.2l0,0l0.1,0.1l0.1,0.2l0,0.1l0.1,0.2l0.1,0.2l0.1,0.2l0,0.1l0.1,0.2l0,0.1c0,0.1,0,0.2,0.1,0.3l0,0.1  l0,0.2l0,0.1c0,0.1,0,0.2,0,0.3l0,0.1l0,0.2l0,0.1c0,0.1,0,0.2,0,0.3l0,0l0,0v0.1l0,0.2l0,0.1l0,0.2l0,0.1c0,0.1,0,0.2,0,0.3l0,0.1  c0,0.1,0,0.2,0,0.2l0,0.1c0,0.1,0,0.2-0.1,0.3l0,0c0,0.1,0,0.2-0.1,0.2l0,0.1c-0.1,0.2-0.1,0.4-0.2,0.5l0,0.1c0,0.1-0.1,0.2-0.1,0.3  l0,0c-0.1,0.1-0.1,0.2-0.2,0.3l0,0.1c0,0.1-0.1,0.1-0.2,0.2l0,0.1c-0.1,0.1-0.1,0.2-0.2,0.2l0,0c-0.1,0.1-0.1,0.1-0.2,0.2l-0.1,0.1  c-0.1,0.1-0.2,0.1-0.2,0.2l-12.5,10.2l0,0c-5,3.1-12.3-0.6-14.9-6.3l0,0l0,0l0,0l0,0l0,0c-0.1-0.3-0.3-0.6-0.5-0.8l0,0l0,0l0,0l0,0  l0,0l0,0l0,0l0,0l0,0l0,0l0,0l0,0l0,0l0,0l0,0l-0.1-0.1l0,0l-0.1-0.1l0,0l0,0l-0.1-0.1l0,0l0,0l0,0c-2.8-2-8.7-0.4-12.4,3.4  C2.1,294.2-8.9,283-5.6,265.1c1-5.1,3.2-10.2,5.7-11.4c2-1,2.9,2.8,3.5,5.4c2.2,8.9,8.4,4.6,14.1,1.1c10-6.1,25.3-15.9,35.7-9.9  c7.3,4.2,9.6,13.8,5.5,22.9C58.7,273.5,58.5,274,58.3,274.4L58.3,274.4z M-3.3,314.9c-8.8-13.2-9.5-27.4-9.4-33.7l0,0l0-0.1  c0.4-10.4,3.4-21,9-29.5c10.2-15.5,28.7-22.1,44.4-20.8c9.8,0.8,17.2,3.8,22.5,8.1c15.4,12.4,12.4,30.6,7.9,47.1  c-2.5,9.3-1.5,17.5,7.6,16.8c4.7-0.3,5.1,2,3,5.2c-8.6,20.9-47.8,31.3-72.2,18.1l7.8-1.1l12.3-10.1c-1.7-0.9-5.4-3.1-8.1-6.9  c-1.2-1.7-2-3.4-2.3-5L6.9,313.5l-2.8,9.1C1.3,320.4-1.2,317.9-3.3,314.9z" name="Layer %{number}" zoom="1" data-layer-id="7704746841659" style="fill-rule: evenodd; clip-rule: evenodd; fill: rgb(241, 239, 239); fill-opacity: 1;"></path><path class="st0" d="M23.9,251c3.5-7.7,13.2-13,20.9-8.7c2.1,1.1,1,4.1-1.2,2.8c-6.7-3.8-15,0-18,6.6c-0.5,1.1-1.2,1.4-1.6,1.2  C23.6,252.7,23.4,252.1,23.9,251z" name="Layer %{number}" zoom="1" data-layer-id="5231053741659" style="fill-rule: evenodd; clip-rule: evenodd; fill: rgb(0, 0, 0); fill-opacity: 1;"></path><path class="st0" d="M10.6,246.3c1.4,0.9,1.4,3.5,0,5.9c-1.4,2.4-3.6,3.6-5,2.7c-1.4-0.9-1.4-3.5,0-5.9  C6.9,246.6,9.2,245.4,10.6,246.3z" name="Layer %{number}" zoom="1" data-layer-id="5885282641659" style="fill-rule: evenodd; clip-rule: evenodd; fill: rgb(0, 0, 0); fill-opacity: 1;"></path><path class="st2" d="M5,325.1l11.7-1.7l11.5-9.4c-1.5-0.9-3.5-2.3-5.3-4.4L5,325.1L5,325.1z M46.6,299l14.7-12  c1.8-1.6,2.5-5-1.8-8.8L38.8,296C41.1,298,43.9,299.1,46.6,299z" name="Layer %{number}" zoom="1" data-layer-id="4410923541659" style="fill-rule: evenodd; clip-rule: evenodd; fill: rgb(77, 77, 77);"></path></svg>